/* XPM */
static char *ground1[] = {
/* columns rows colors chars-per-pixel */
"32 32 15 1 ",
"  c #187E37",
". c #188037",
"X c #198139",
"o c #198339",
"O c #19843A",
"+ c #1B8B3C",
"@ c #1C9340",
"# c #1D9842",
"$ c #1D9942",
"% c #1E9D44",
"& c #1EA045",
"* c #1FA246",
"= c #22B14C",
"- c #6ABB82",
"; c #B4E4C2",
/* pixels */
"================================",
"================================",
"================================",
"================================",
"========&+%=========&#==========",
"========o X=========# ==========",
"=====&#=.  =====================",
"=====# =# @=====================",
"==================&#====&#======",
"==================# ====# ======",
"====&#==========================",
"====# ==========================",
"================================",
"=========================*oo%===",
"=======&#================o. .===",
"=======# ================%XX+===",
"==========&#=======;-#==========",
"==========# ========# ==========",
"================================",
"================================",
"============&#==================",
"=&OO%=======# ==================",
"=oX .===========================",
"=#  @===========================",
"================================",
"==================&+%===========",
"=================*X .===========",
"=================o   ===&#======",
"======&#=========#..@===# ======",
"======# ========================",
"================================",
"================================"
};
