/* XPM */
static char *ground3[] = {
/* columns rows colors chars-per-pixel */
"32 32 13 1 ",
"  c #187E37",
". c #187F37",
"X c #188037",
"o c #198339",
"O c #19843A",
"+ c #1B8B3C",
"@ c #1C9340",
"# c #1D9842",
"$ c #1D9942",
"% c #1E9D44",
"& c #1EA045",
"* c #1FA246",
"= c #22B14C",
/* pixels */
"==*OO%==========================",
"==O  X==========================",
"==$  @===========*+%============",
"=================O X============",
"=================XX.============",
"%$===============$o+==========%$",
"$.============================$.",
"================================",
"========*+%=====================",
"========o  =======%O  .o%=======",
"========   =======O.  ...=======",
"========   =======#   ...=======",
"========$ @=====================",
"================================",
"================================",
"===*#===========================",
"===# ========%#=================",
"=============#.======*#=========",
"=====================#.=========",
"================================",
"=====*OO%=======================",
"=====O...=============%#========",
"=====#...====*@#======#.========",
"======#.@====. .#===============",
"=============....===============",
"=============#.@================",
"===%#===========================",
"===#.===========================",
"=======================*OO%=====",
"=======================O...=====",
"=======================#..@=====",
"===%#==========================="
};
