/* XPM */
static char *guard_up[] = {
/* columns rows colors chars-per-pixel */
"32 32 148 2 ",
"   c black",
".  c #39360D",
"X  c #353616",
"o  c #403700",
"O  c #413E0D",
"+  c #3F400D",
"@  c #4F4509",
"#  c #4D4C0C",
"$  c #524A06",
"%  c #514A0C",
"&  c #584D0D",
"*  c #464413",
"=  c #474A14",
"-  c #4A4B17",
";  c #41441D",
":  c #4E4719",
">  c #4C4B1B",
",  c #524F15",
"<  c #594F14",
"1  c #534C1C",
"2  c #4B541A",
"3  c #5C5415",
"4  c #54531C",
"5  c #5C551C",
"6  c #555F1F",
"7  c #5D5E1F",
"8  c #625917",
"9  c #635A1C",
"0  c #524F21",
"q  c #555324",
"w  c #595621",
"e  c #565A26",
"r  c #5B5C22",
"t  c #545B2F",
"y  c #5A5B29",
"u  c #5A5C35",
"i  c #53513C",
"p  c #635C23",
"a  c #655529",
"s  c #665F29",
"d  c #625D39",
"f  c #5B642D",
"g  c #5C6730",
"h  c #5C673E",
"j  c #656324",
"k  c #696024",
"l  c #65632A",
"z  c #696229",
"x  c #67682F",
"c  c #6A6B2D",
"v  c #71682E",
"b  c #646833",
"n  c #6A6C33",
"m  c #69653A",
"M  c #656E3C",
"N  c #726D3D",
"B  c #6F7136",
"V  c #6B723C",
"C  c #7A723C",
"Z  c #70783E",
"A  c #5E6A47",
"S  c #626D41",
"D  c #6B6D41",
"F  c #636E49",
"G  c #6B6D4C",
"H  c #716E4D",
"J  c #6E744A",
"K  c #7B7644",
"L  c #72724A",
"P  c #767E4D",
"I  c #7B7C4D",
"U  c #647150",
"Y  c #7D7851",
"T  c #7A7A65",
"R  c gray50",
"E  c #806C38",
"W  c #847F5B",
"Q  c #22B14C",
"!  c #7A8147",
"~  c #76824E",
"^  c #748252",
"/  c #7C8553",
"(  c #7A8058",
")  c #788263",
"_  c #7F8768",
"`  c #848E43",
"'  c #868E4A",
"]  c #87904D",
"[  c #8D8556",
"{  c #86815D",
"}  c #898259",
"|  c #848B5C",
" . c #8F9955",
".. c #81935B",
"X. c #8B955E",
"o. c #8E9C5D",
"O. c #8A8666",
"+. c #8E8B62",
"@. c #948F69",
"#. c #8B9D62",
"$. c #86936D",
"%. c #949F60",
"&. c #92956D",
"*. c #95996F",
"=. c #898974",
"-. c #959472",
";. c #969A73",
":. c #999D76",
">. c #90997E",
",. c #9C9E7A",
"<. c #A09C7B",
"1. c #9CA07A",
"2. c #A0A47F",
"3. c #959380",
"4. c #9C9B83",
"5. c #9B9C8C",
"6. c #AD9C99",
"7. c #9EA082",
"8. c #A3A486",
"9. c #A9A581",
"0. c #A3A886",
"q. c #A6A48B",
"w. c #A6A98A",
"e. c #ABAD8D",
"r. c #A3A492",
"t. c #ABAE94",
"y. c #B1AE96",
"u. c #B1AD99",
"i. c #ADB196",
"p. c #AEB39B",
"a. c #A7AAA1",
"s. c #B2AFA1",
"d. c #B5B5A4",
"f. c #B7B9A2",
"g. c #BCBCAB",
"h. c #BFBEB3",
"j. c #BBC19C",
"k. c #BEC3B0",
"l. c #C3C2AD",
"z. c #C3C3B4",
"x. c #C7C8BB",
"c. c #C9CABE",
"v. c #C3C3C3",
"b. c #CAC9C2",
"n. c #D1CFC5",
"m. c #D2D2C8",
"M. c #DADAD7",
"N. c #DEDEDC",
/* pixels */
"Q Q Q Q Q Q Q Q Q Q Q Q Q Q Q Q Q Q Q Q Q Q Q Q Q Q x.t.1.1.0.Q ",
"Q Q Q Q Q Q Q Q Q Q Q Q Q Q Q Q Q Q Q Q Q Q Q t.c.,.:.1.:.:.M.Q ",
"Q Q Q g.y.n.m.&.;.&.-.d.Q Q Q Q Q Q Q Q c.> O L 1.1.,.*.w.N.Q Q ",
"Q Q b.3.H d q : q m &.&.*.Q Q Q Q Q Q d.. h.e.2.,.;.:.c.Q Q Q Q ",
"Q Q Q Q Q Q Q b.;.| ' %. .' ` %.e.l.h.. N.;.,.*.:.z.Q Q Q Q Q Q ",
"Q Q Q Q Q Q >.g.j.] I M x x n l c v 3 [ :.;.:.z.Q Q Q Q Q Q Q Q ",
"Q Q Q Q Q Q Q / o.X.#...#.Z n n c B c 3 8 l.Q Q Q Q Q Q Q Q Q Q ",
"Q Q Q Q Q Q ! ~ I ^ E b b b b n c B n 9 k C Q Q Q Q Q Q Q Q Q Q ",
"Q Q Q Q Q b b D P a b b b b b h b V r p v & Q Q Q Q Q Q Q Q Q Q ",
"Q Q Q Q Q b b b b b b b b b b t t 4 1 s 5 < C Q Q Q Q Q Q Q Q Q ",
"Q Q Q Q Q b b F A S S b b b b > O 1 0 q > l z.Q Q Q Q Q Q Q Q Q ",
"Q Q Q Q Q j $._ S A F U ) e : 0 1 0 1 1 b V Q Q Q Q Q Q Q Q Q Q ",
"Q Q Q Q Q N T z.Q d.O 4.=.1 * * O : 0 e V | Q Q Q Q Q Q Q Q Q Q ",
"Q Q Q Q Q a.H ' Q r.u G r.e t + y 1 > y V ,.Q Q Q Q Q Q Q Q Q Q ",
"Q Q Q Q Q Q 3 5 Q Q Q Q Q h.- X f - * y M f.Q Q Q Q Q Q Q Q Q Q ",
"Q Q Q Q Q Q 8.$ Q Q Q Q Q Q ( . X 4 ; l r <.} t.Q Q Q Q Q Q Q Q ",
"Q Q Q Q Q Q Q 5 9.Q Q Q Q Q p.= * 5 n z p @ C Q Q Q Q Q Q Q Q Q ",
"Q Q Q Q Q Q Q q.3 Q Q Q Q Q Q 2 j z p 5 s @.Q Q Q Q Q Q Q Q Q Q ",
"Q Q Q Q Q Q Q Q t.r.T 5.Q Q +.p z z s K Q Q Q Q Q Q Q Q Q Q Q Q ",
"Q Q Q Q Q Q Q Q R v.i O.K % p w * O # t.Q Q Q Q Q Q Q Q Q Q Q Q ",
"Q Q Q Q Q 6.R R R 3.5 r ,...j 4 O @ , | Q Q Q Q Q Q Q Q Q Q Q Q ",
"Q Q v.  R R R R R 5.s.Q k.n 7 , , 4 B M e.Q Q Q Q Q Q Q Q Q Q Q ",
"Q Q v.  R R R =.Q Q Q Q | | e r f ;.Q f e.Q Q Q Q Q Q Q Q Q Q Q ",
"Q Q Q v.    Q Q Q Q Q Q f 8.= = e.Q Q f i.Q Q Q Q Q Q Q Q Q Q Q ",
"Q Q Q Q Q Q Q Q Q Q Q p.n v.D J 7.Q Q f y.Q Q Q Q Q Q Q Q Q Q Q ",
"Q Q Q Q Q Q Q Q Q Q Q / 1.Q Q Q Q Q Q f f.Q Q Q Q Q Q Q Q Q Q Q ",
"Q Q Q Q Q Q Q Q Q Q Q 6 M.Q Q Q Q Q Q f g.Q Q Q Q Q Q Q Q Q Q Q ",
"Q Q Q Q Q Q Q Q Q Q Q D -.+.I > Q Q Q g f.Q Q Q Q Q Q Q Q Q Q Q ",
"Q Q Q Q Q Q Q Q Q Q Q Q Q Q s.W Q Q Q J u.Q Q Q Q Q Q Q Q Q Q Q ",
"Q Q Q Q Q Q Q Q Q Q Q Q Q Q -.y.Q Q Q Y h.Q Q Q Q Q Q Q Q Q Q Q ",
"Q Q Q Q Q Q Q Q Q Q Q Q Q Q N g.Q Q Q { ,.Q Q Q Q Q Q Q Q Q Q Q ",
"Q Q Q Q Q Q Q Q Q Q Q Q Q Q o g.Q Q Q O.n Q Q Q Q Q Q Q Q Q Q Q "
};
