/* XPM */
static char *guard_right[] = {
/* columns rows colors chars-per-pixel */
"32 32 153 2 ",
"   c black",
".  c #3E3A0C",
"X  c #353616",
"o  c #3A3711",
"O  c #373916",
"+  c #403700",
"@  c #413E0D",
"#  c #3F400D",
"$  c #4F4509",
"%  c #4D4C0C",
"&  c #524A06",
"*  c #514A0C",
"=  c #584D0D",
"-  c #464413",
";  c #4B4716",
":  c #474A14",
">  c #4A4B17",
",  c #41441D",
"<  c #4E4719",
"1  c #4C4B1B",
"2  c #524F15",
"3  c #594F14",
"4  c #4B541A",
"5  c #5C5415",
"6  c #54531C",
"7  c #5C551C",
"8  c #555F1F",
"9  c #5D5E1F",
"0  c #625917",
"q  c #635A1C",
"w  c #524F21",
"e  c #555324",
"r  c #595621",
"t  c #565A26",
"y  c #5B5C22",
"u  c #545B2F",
"i  c #5A5B29",
"p  c #575739",
"a  c #635C23",
"s  c #655529",
"d  c #665F29",
"f  c #625D39",
"g  c #775C31",
"h  c #5B642D",
"j  c #5C6632",
"k  c #5C673E",
"l  c #656324",
"z  c #696024",
"x  c #65632A",
"c  c #696229",
"v  c #67682F",
"b  c #6A6B2D",
"n  c #71682E",
"m  c #646A34",
"M  c #6A6C33",
"N  c #69663C",
"B  c #656C3B",
"V  c #716A36",
"C  c #726D3D",
"Z  c #6F7136",
"A  c #6B733D",
"S  c #7A723C",
"D  c #70783E",
"F  c #5E6A47",
"G  c #626D41",
"H  c #6B6D41",
"J  c #636E49",
"K  c #6B6D4C",
"L  c #716E4D",
"P  c #6F7340",
"I  c #60724A",
"U  c #6E744A",
"Y  c #6B794F",
"T  c #7B7644",
"R  c #767E4D",
"E  c #647150",
"W  c #7D7851",
"Q  c #7A7A65",
"!  c gray50",
"~  c #ED1C24",
"^  c #8F5F27",
"/  c #896A2F",
"(  c #806C38",
")  c #A8783E",
"_  c #847D4C",
"`  c #847F5B",
"'  c #22B14C",
"]  c #7A8147",
"[  c #76824E",
"{  c #748252",
"}  c #7C8553",
"|  c #788263",
" . c #7F8768",
".. c #868E4A",
"X. c #87904D",
"o. c #8D8556",
"O. c #848B5C",
"+. c #8B8C5E",
"@. c #8F9955",
"#. c #89975D",
"$. c #8A8666",
"%. c #8E8B62",
"&. c #948F69",
"*. c #8B9D62",
"=. c #86936D",
"-. c #949F60",
";. c #92956D",
":. c #95996F",
">. c #898974",
",. c #959472",
"<. c #969A73",
"1. c #999D76",
"2. c #90997E",
"3. c #9C9E7A",
"4. c #A09C7B",
"5. c #9CA07A",
"6. c #959380",
"7. c #9C9B83",
"8. c #9B9C8C",
"9. c #AD9C99",
"0. c #9EA082",
"q. c #A3A486",
"w. c #A9A581",
"e. c #A3A886",
"r. c #A6A48B",
"t. c #A6A98A",
"y. c #ABAD8D",
"u. c #A3A492",
"i. c #ABAE94",
"p. c #B1AE96",
"a. c #B1AD99",
"s. c #ADB196",
"d. c #AEB39B",
"f. c #A7AAA1",
"g. c #B2AFA1",
"h. c #B5B5A4",
"j. c #B7B9A2",
"k. c #B9BAA5",
"l. c #BCBCAB",
"z. c #BFBEB3",
"x. c #BBC19C",
"c. c #BEC3B0",
"v. c #C3C2AD",
"b. c #C3C3B4",
"n. c #C5C6BB",
"m. c #C7C8BB",
"M. c #C9CABE",
"N. c #C3C3C3",
"B. c #CAC9C2",
"V. c #D1CFC5",
"C. c #D2D2C8",
"Z. c #DADAD7",
"A. c #DEDEDC",
/* pixels */
"' e.3.5.s.m.' ' ' ' ' ' ' ' ' ' ' ' ' ' ' ' ' ' ' ' ' ' ' ' ' ' ",
"' Z.1.3.5.<.5.M.i.' ' ' ' ' ' ' ' ' ' ' ' ' ' ' ' ' ' ' ' ' ' ' ",
"' ' A.t.:.5.5.5.R . 1 M.' ' ' ' ' ' ' ' h.,.;.<.:.C.V.a.l.' ' ' ",
"' ' ' ' M.1.:.5.5.y.z.. h.' ' ' ' ' ' ,.;.;.N r < r f L 6.B.' ' ",
"' ' ' ' ' ' c.1.<.5.<.A.o v.v.y.-.....@.-...O.<.M.' ' ' ' ' ' ' ",
"' ' ' ' ' ' ' ' b.1.<.<.o.5 b b x v M v B ] X.x.l.2.' ' ' ' ' ' ",
"' ' ' ' ' ' ' ' ' ' v.0 5 b M b M M D *.#.*.+.#.} ' ' ' ' ' ' ' ",
"' ' ' ' ' ' ' ' ' ' ( d q M M M M D ) ~ ~ S { R [ R ~ ' ' ' ' ' ",
"' ' ' ' ' ' ' ' ' ' = n s a C m m ^ ~ ~ ~ ~ s { C ~ ~ ~ ' ' ' ' ",
"' ' ' ' ' ' ' ' ' S 3 r d 3 e u u / ~ ~ ~ ~ B Y v ~ ~ ~ ' ' ' ' ",
"' ' ' ' ' ' ' ' ' n.h < e w w @ 1 j N ~ ~ B I F F g ~ ' ' ' ' ' ",
"' ' ' ' ' ' ' ' ' ' D m < w w w w < i | E J k G  .=.x ' ' ' ' ' ",
"' ' ' ' ' ' ' ' ' ' O.A i 6 ; @ @ - w >.7.# j.' b.Q C ' ' ' ' ' ",
"' ' ' ' ' ' ' ' ' ' 3.B i > 1 t , e t u.K p u.' _ L f.' ' ' ' ' ",
"' ' ' ' ' ' ' ' ' ' j.M i - > h X 1 z.' ' ' ' ' 0 5 ' ' ' ' ' ' ",
"' ' ' ' ' ' ' ' p.` 4.y x , 6 O o R ' ' ' ' ' ' & q.' ' ' ' ' ' ",
"' ' ' ' ' ' ' ' ' S $ a c M 6 - : d.' ' ' ' ' w.r ' ' ' ' ' ' ' ",
"' ' ' ' ' ' ' ' ' ' &.d 7 a c l 4 ' ' ' ' ' ' r r.' ' ' ' ' ' ' ",
"' ' ' ' ' ' ' ' ' ' ' ' T c z c a %.' ' 8.Q u.f.' ' ' ' ' ' ' ' ",
"' ' ' ' ' ' ' ' ' ' ' ' y.% @ - r y * T ` p N.! ' ' ' ' ' ' ' ' ",
"' ' ' ' ' ' ' ' ' ' ' ' } 6 * @ 6 l #.3.a 0 ! ! ! ! 9.' ' ' ' ' ",
"' ' ' ' ' ' ' ' ' ' ' i.B Z 8 2 = h m c.' h.u. .! ! ! !   N.' ' ",
"' ' ' ' ' ' ' ' ' ' ' i.h ' <.9 r t O.O.' ' ' ' >.! ! !   N.' ' ",
"' ' ' ' ' ' ' ' ' ' ' s.h ' ' i.: : q.h ' ' ' ' ' '     N.' ' ' ",
"' ' ' ' ' ' ' ' ' ' ' s.h ' ' 0.U H M.B d.' ' ' ' ' ' ' ' ' ' ' ",
"' ' ' ' ' ' ' ' ' ' ' h.h ' ' ' ' ' ' 5.} ' ' ' ' ' ' ' ' ' ' ' ",
"' ' ' ' ' ' ' ' ' ' ' v.h ' ' ' ' ' ' Z.y ' ' ' ' ' ' ' ' ' ' ' ",
"' ' ' ' ' ' ' ' ' ' ' k.j ' ' ' 1 R %.,.P ' ' ' ' ' ' ' ' ' ' ' ",
"' ' ' ' ' ' ' ' ' ' ' a.K ' ' ' ` g.' ' ' ' ' ' ' ' ' ' ' ' ' ' ",
"' ' ' ' ' ' ' ' ' ' ' l.W ' ' ' p.,.' ' ' ' ' ' ' ' ' ' ' ' ' ' ",
"' ' ' ' ' ' ' ' ' ' ' 4.` ' ' ' l.C ' ' ' ' ' ' ' ' ' ' ' ' ' ' ",
"' ' ' ' ' ' ' ' ' ' ' V $.' ' ' l.+ ' ' ' ' ' ' ' ' ' ' ' ' ' ' "
};
