/* XPM */
static char *guard_left[] = {
/* columns rows colors chars-per-pixel */
"32 32 155 2 ",
"   c black",
".  c #39360D",
"X  c #3E3A0C",
"o  c #353616",
"O  c #3A3711",
"+  c #373916",
"@  c #403700",
"#  c #413E0D",
"$  c #3F400D",
"%  c #4F4509",
"&  c #4D4C0C",
"*  c #524A06",
"=  c #584D0D",
"-  c #464413",
";  c #4B4716",
":  c #474A14",
">  c #4A4B17",
",  c #41441D",
"<  c #4E4719",
"1  c #4C4B1B",
"2  c #524F15",
"3  c #534C1C",
"4  c #4B541A",
"5  c #5C5415",
"6  c #54531C",
"7  c #5C551C",
"8  c #555F1F",
"9  c #5D5E1F",
"0  c #625917",
"q  c #635A1C",
"w  c #524F21",
"e  c #555324",
"r  c #595621",
"t  c #565A26",
"y  c #5B5C22",
"u  c #545B2F",
"i  c #5A5B29",
"p  c #575739",
"a  c #635C23",
"s  c #655529",
"d  c #665F29",
"f  c #635F33",
"g  c #625D39",
"h  c #775C31",
"j  c #5B642D",
"k  c #5C6632",
"l  c #5C673E",
"z  c #656324",
"x  c #696024",
"c  c #65632A",
"v  c #696229",
"b  c #67682F",
"n  c #6A6B2D",
"m  c #646A34",
"M  c #6A6C33",
"N  c #69663C",
"B  c #656C3B",
"V  c #716A36",
"C  c #726D3D",
"Z  c #6F7136",
"A  c #6B733D",
"S  c #7A723C",
"D  c #70783E",
"F  c #5E6A47",
"G  c #626D41",
"H  c #6B6D41",
"J  c #636E49",
"K  c #6B6D4C",
"L  c #716F42",
"P  c #716E4D",
"I  c #6F7340",
"U  c #6E744A",
"Y  c #6B794F",
"T  c #7B7644",
"R  c #72724A",
"E  c #767E4D",
"W  c #7B7C4D",
"Q  c #647150",
"!  c #7D7851",
"~  c #7A7A65",
"^  c gray50",
"/  c #ED1C24",
"(  c #8F5F27",
")  c #896A2F",
"_  c #A8783E",
"`  c #847F5B",
"'  c #22B14C",
"]  c #7A8147",
"[  c #76824E",
"{  c #7C8553",
"}  c #7A8058",
"|  c #788263",
" . c #7F8768",
".. c #848E43",
"X. c #868E4A",
"o. c #87904D",
"O. c #8D8556",
"+. c #86815D",
"@. c #898259",
"#. c #848B5C",
"$. c #8B8C5E",
"%. c #8F9955",
"&. c #89975D",
"*. c #8A8666",
"=. c #8E8B62",
"-. c #948F69",
";. c #8B9D62",
":. c #86936D",
">. c #949F60",
",. c #92956D",
"<. c #95996F",
"1. c #898974",
"2. c #959472",
"3. c #969A73",
"4. c #999D76",
"5. c #90997E",
"6. c #9C9E7A",
"7. c #A09C7B",
"8. c #99A168",
"9. c #9CA07A",
"0. c #A0A47F",
"q. c #959380",
"w. c #9B9C8C",
"e. c #AD9C99",
"r. c #9EA082",
"t. c #A3A486",
"y. c #A3A886",
"u. c #A6A48B",
"i. c #A6A98A",
"p. c #ABAD8D",
"a. c #A3A492",
"s. c #ABAE94",
"d. c #B1AE96",
"f. c #B1AD99",
"g. c #ADB196",
"h. c #AEB39B",
"j. c #A7AAA1",
"k. c #B2AFA1",
"l. c #B5B5A4",
"z. c #B9BAA5",
"x. c #BCBCAB",
"c. c #BFBEB3",
"v. c #BBC19C",
"b. c #BEC3B0",
"n. c #C3C2AD",
"m. c #C3C3B4",
"M. c #C5C6BB",
"N. c #C7C8BB",
"B. c #C9CABE",
"V. c #C3C3C3",
"C. c #CAC9C2",
"Z. c #D1CFC5",
"A. c #D2D2C8",
"S. c #DADAD7",
"D. c #DEDEDC",
/* pixels */
"' ' ' ' ' ' ' ' ' ' ' ' ' ' ' ' ' ' ' ' ' ' ' ' ' ' N.g.9.9.y.' ",
"' ' ' ' ' ' ' ' ' ' ' ' ' ' ' ' ' ' ' ' ' ' ' s.B.6.4.9.4.4.S.' ",
"' ' ' x.d.Z.A.,.<.,.2.l.' ' ' ' ' ' ' ' B.1 X R 6.9.6.<.i.D.' ' ",
"' ' C.q.P g e < e N ,.,.<.' ' ' ' ' ' l.. b.p.0.6.3.4.B.' ' ' ' ",
"' ' ' ' ' ' ' C.3.$.X.>.%.X...8.p.n.c.O D.4.9.<.3.m.' ' ' ' ' ' ",
"' ' ' ' ' ' 5.x.v.o.W B b M m c n n 5 O.4.<.4.m.' ' ' ' ' ' ' ' ",
"' ' ' ' ' ' ' { &.&.;.&.&.D M M n M n 5 0 n.' ' ' ' ' ' ' ' ' ' ",
"' ' ' ' ' / ] [ E [ S / / _ A N n Z V q x S ' ' ' ' ' ' ' ' ' ' ",
"' ' ' ' / / / L E s / / / / ( m m B a a n = ' ' ' ' ' ' ' ' ' ' ",
"' ' ' ' / / / f Y B / / / / ) u u e 3 d 7 5 S ' ' ' ' ' ' ' ' ' ",
"' ' ' ' ' / h J F J G / / H k 1 - < w e < d M.' ' ' ' ' ' ' ' ' ",
"' ' ' ' ' z :. .F l J Q | e < w w 3 1 2 m I ' ' ' ' ' ' ' ' ' ' ",
"' ' ' ' ' C ~ m.' l.- 6.1.1 : - # ; 3 i A #.' ' ' ' ' ' ' ' ' ' ",
"' ' ' ' ' j.P X.' u.p K a.t u $ i 3 1 i B 9.' ' ' ' ' ' ' ' ' ' ",
"' ' ' ' ' ' 5 7 ' ' ' ' ' b.> o i > : i m z.' ' ' ' ' ' ' ' ' ' ",
"' ' ' ' ' ' t.* ' ' ' ' ' ' } . + 6 , c y 7.@.d.' ' ' ' ' ' ' ' ",
"' ' ' ' ' ' ' i t.' ' ' ' ' h.: : 6 M v a % S ' ' ' ' ' ' ' ' ' ",
"' ' ' ' ' ' ' a.5 ' ' ' ' ' ' 4 d v a 7 z -.' ' ' ' ' ' ' ' ' ' ",
"' ' ' ' ' ' ' ' s.a.~ w.' ' =.a v v v T ' ' ' ' ' ' ' ' ' ' ' ' ",
"' ' ' ' ' ' ' ' ^ V.p *.T * a r - # & p.' ' ' ' ' ' ' ' ' ' ' ' ",
"' ' ' ' ' e.^ ^ ^ ^ q d 9.&.z 6 # ; 6 { ' ' ' ' ' ' ' ' ' ' ' ' ",
"' ' V.  ^ ^ ^ ^ ^ w.l.' b.m y 2 2 7 Z B p.' ' ' ' ' ' ' ' ' ' ' ",
"' ' V.  ^ ^ ` 1.' ' ' ' #.#.t y 9 <.' j g.' ' ' ' ' ' ' ' ' ' ' ",
"' ' ' V.    ' ' ' ' ' ' j t.- : s.' ' j g.' ' ' ' ' ' ' ' ' ' ' ",
"' ' ' ' ' ' ' ' ' ' ' h.M C.H U r.' ' j h.' ' ' ' ' ' ' ' ' ' ' ",
"' ' ' ' ' ' ' ' ' ' ' { 6.' ' ' ' ' ' j l.' ' ' ' ' ' ' ' ' ' ' ",
"' ' ' ' ' ' ' ' ' ' ' 8 S.' ' ' ' ' ' j x.' ' ' ' ' ' ' ' ' ' ' ",
"' ' ' ' ' ' ' ' ' ' ' H 2.=.E 1 ' ' ' k z.' ' ' ' ' ' ' ' ' ' ' ",
"' ' ' ' ' ' ' ' ' ' ' ' ' ' k.` ' ' ' U f.' ' ' ' ' ' ' ' ' ' ' ",
"' ' ' ' ' ' ' ' ' ' ' ' ' ' 2.f.' ' ' ! x.' ' ' ' ' ' ' ' ' ' ' ",
"' ' ' ' ' ' ' ' ' ' ' ' ' ' C x.' ' ' +.6.' ' ' ' ' ' ' ' ' ' ' ",
"' ' ' ' ' ' ' ' ' ' ' ' ' ' @ z.' ' ' =.V ' ' ' ' ' ' ' ' ' ' ' "
};
