/* XPM */
static char *morty[] = {
/* columns rows colors chars-per-pixel */
"32 32 18 1 ",
"  c black",
". c #13662C",
"X c #13692D",
"o c #146D2F",
"O c #177934",
"+ c #B97A57",
"@ c #198539",
"# c #1B8D3D",
"$ c #1B8E3D",
"% c #1C9440",
"& c #1C9841",
"* c #1D9C43",
"= c #22B14C",
"- c #FFF200",
"; c #3F48CC",
": c #00A2E8",
"> c #EFE4B0",
", c white",
/* pixels */
"================================",
"================================",
"============&#==================",
"============#.==========&#======",
"======&#================#.======",
"======#.========================",
"============++++++++============",
"==========++++++++++++====*O%===",
"=========++++++++++++++===o.X===",
"====&#===+++++++++++++++==X..===",
"====#.===>>>>>>+++++++++==#.@===",
"=========>>>>>>>>>>>>>++========",
"=========,,,>>>>>>>>>>>=====&#==",
"=========, ,>>>>>>>>>>>=====#.==",
"=========>>:>>>>>>>>>>>=========",
"========>>:>>>>>>>>>>>>=========",
"=========>>>>>>>>>>>>>==========",
"==============>>>>>>>>==========",
"==========>>>==>>>>>>===========",
"==========>>>>>>>>>>>===========",
"=============>>>>>>-======&#====",
"====&#=====&#===-----=====#.====",
"====#.=====#.===------==========",
"================------==========",
"==============;;-------=========",
"========&#====;;--------====&#==",
"========#.===;;;--------====#.==",
"============;;;>>>;-----========",
"====&#=====;;;=>>>;;----========",
"====#.=====;;;===;;;;;;;========",
"===========  =====;;;;;;========",
"==========   ======;;;;;========"
};
