/* XPM */
static char *one[] = {
/* columns rows colors chars-per-pixel */
"16 16 54 1 ",
"  c black",
". c gray4",
"X c #100000",
"o c #000719",
"O c #561B00",
"+ c #971800",
"@ c #B66B0A",
"# c #D1903A",
"$ c #DB903A",
"% c #DE903A",
"& c #AD8971",
"* c #C1A342",
"= c #FFA843",
"- c #FBB66B",
"; c #000C87",
": c #0A4192",
"> c #3470A8",
", c #56B3FF",
"< c #66B6FF",
"1 c #77D4FF",
"2 c #92828B",
"3 c #9E9B87",
"4 c #929292",
"5 c #AAA39D",
"6 c #92A0B6",
"7 c #A2A2A2",
"8 c #A0A6AD",
"9 c #A2ACBA",
"0 c #B2B2B2",
"q c #BEB8B8",
"w c #C0B3A2",
"e c #C1BFBF",
"r c #CCC0B3",
"t c #CAC4BD",
"y c #EEDAB6",
"u c #ABBFD2",
"i c #BDC0C7",
"p c #BFC3C8",
"a c #B0C5D7",
"s c #B8C5D2",
"d c #C3C3C3",
"f c #CAC5C1",
"g c #CDCAC5",
"h c #C3C8CD",
"j c #C6CCCC",
"k c #CDCDCD",
"l c #D3CEC7",
"z c #CED3D3",
"x c #C8D2D8",
"c c LightGray",
"v c #E3D9CB",
"b c #C5D2E3",
"n c #D9FBFB",
"m c gray89",
/* pixels */
"dddddddddddddddd",
"ddddddizctdddddd",
"dddddxy24udddddd",
"ddddd&3O ,dddddd",
"dddbb+;* <dddddd",
"ddd@@>6# <dddddd",
"dddwwal% <dddddd",
"dddhhfd$ <dddddd",
"ddddddd$ <dddddd",
"ddddddd$ <dddddd",
"ddddddd$ <dddddd",
"ddddddd$ <dddddd",
"dddssmm= 1mvvqdd",
"ddd--..X o.::ndd",
"dddrr77805799jdd",
"dddppkkkkkkggedd"
};
