/* XPM */
static char *portal[] = {
/* columns rows colors chars-per-pixel */
"32 32 186 2 ",
"   c #007028",
".  c #007B2C",
"X  c #007C34",
"o  c #01763A",
"O  c #047C3B",
"+  c #097F3E",
"@  c #036A40",
"#  c #0B7844",
"$  c #0D7D44",
"%  c #107F46",
"&  c #00882F",
"*  c #008532",
"=  c #068739",
"-  c #0A843D",
";  c #078A39",
":  c #0D8C3E",
">  c #0E9D38",
",  c #11923F",
"<  c #149B3E",
"1  c #06A72B",
"2  c #09A62E",
"3  c #0FAD32",
"4  c #13AC36",
"5  c #15A33C",
"6  c #16AD38",
"7  c #18AC3B",
"8  c #16B236",
"9  c #1BBD36",
"0  c #17B238",
"q  c #1AB33A",
"w  c #1CBC39",
"e  c #08DA17",
"r  c #07EF0D",
"t  c #0DE915",
"y  c #13ED19",
"u  c #19EC1F",
"i  c #0FF313",
"p  c #19F21D",
"a  c #15C52D",
"s  c #15D526",
"d  c #19DD26",
"f  c #1BD32D",
"g  c #1ADB29",
"h  c #1DC536",
"j  c #1ECC34",
"k  c #20DE2E",
"l  c #20CE34",
"z  c #23C23E",
"x  c #23C93A",
"c  c #22DA31",
"v  c #25D339",
"b  c #1BE525",
"n  c #1EEB25",
"m  c #1FE12B",
"M  c #1EF322",
"N  c #1FF820",
"B  c #23E42D",
"V  c #24EB2C",
"C  c #21F325",
"Z  c #23FB23",
"A  c #2CFF27",
"S  c #24F529",
"D  c #28F42D",
"F  c #2AFD2A",
"G  c #24E230",
"H  c #29E038",
"J  c #2BF630",
"K  c #30F336",
"L  c #36F33E",
"P  c #0D8341",
"I  c #0F8941",
"U  c #108444",
"Y  c #128C43",
"T  c #1B8D4C",
"R  c #139241",
"E  c #199347",
"W  c #1C9F47",
"Q  c #1C924B",
"!  c #1D994A",
"~  c #20964D",
"^  c #219D4C",
"/  c #259A51",
"(  c #33985E",
")  c #1FAB42",
"_  c #24A14D",
"`  c #22B14C",
"'  c #27A051",
"]  c #29A452",
"[  c #2FAB55",
"{  c #32AE57",
"}  c #34AE5A",
"|  c #2CB051",
" . c #32B156",
".. c #39B75B",
"X. c #379763",
"o. c #43A569",
"O. c #40BB62",
"+. c #4CA870",
"@. c #5EBB7B",
"#. c #29C742",
"$. c #2FD244",
"%. c #3AC556",
"&. c #39CD51",
"*. c #36E444",
"=. c #38E346",
"-. c #3BE54A",
";. c #3CF344",
":. c #4BDC5F",
">. c #41EC4C",
",. c #41FC45",
"<. c #45F64D",
"1. c #46F84E",
"2. c #4BFC4D",
"3. c #46E654",
"4. c #49F452",
"5. c #4AF953",
"6. c #4BF854",
"7. c #54F75F",
"8. c #4DCD67",
"9. c #4AC468",
"0. c #4DDB62",
"q. c #52D16C",
"w. c #56D96C",
"e. c #53C970",
"r. c #5DDB74",
"t. c #61DB78",
"y. c #59E16D",
"u. c #57F761",
"i. c #5BF765",
"p. c #5AFC63",
"a. c #5FF769",
"s. c #5EFB69",
"d. c #64FB6E",
"f. c #69FB6D",
"g. c #62E474",
"h. c #67E77A",
"j. c #65FC72",
"k. c #6BFE74",
"l. c #6EFC7B",
"z. c #71FF75",
"x. c #71FD7E",
"c. c #67B487",
"v. c #75B693",
"b. c #7FBB9C",
"n. c #76DE84",
"m. c #79E386",
"M. c #72EF82",
"N. c #73F581",
"B. c #76FC81",
"V. c #7BFC85",
"C. c #7EFD89",
"Z. c #80F28E",
"A. c #83FE8C",
"S. c #88FE8D",
"D. c #8CFF92",
"F. c #8FFC98",
"G. c #93FC95",
"H. c #9AFE99",
"J. c #92C5AA",
"K. c #8FD0A4",
"L. c #97D0AB",
"P. c #9ACEB0",
"I. c #9FFCA6",
"U. c #A0FDA7",
"Y. c #A1FDAA",
"T. c #A9FDAF",
"R. c #B3EEBD",
"E. c #ADFFB2",
"W. c #B1FEB7",
"Q. c #B4FDBA",
"!. c #BDFCBE",
"~. c #BDD5CE",
"^. c #BEFCC3",
"/. c #C5FEC9",
"(. c #C5FDCA",
"). c #D6E8DF",
"_. c #CFFED3",
"`. c #DAFFD5",
"'. c #DAFDDD",
"]. c #E1FFDB",
"[. c #E3FEE5",
"{. c #E7FEE9",
"}. c #EDFEEF",
"|. c #F1FEF2",
" X c #F8F9F9",
".X c white",
/* pixels */
"` ` ` ` ` ` ` ` ` ` A.x.j.x.V.A.C.C.C.C.C.C.` ` ` ` ` ` ` ` ` ` ",
"` ` ` ` ` ` ` ` Q.V.N 4..XH.p S C S S S C S V.Q.` ` ` ` ` ` ` ` ",
"` ` ` ` ` ` [.B.4.S , Y ~ E , , R , ; & , , S 4.B.[.` ` ` ` ` ` ",
"` ` ` ` ` ` }.x.1.Z Y Y Y U U - - X v..X( I Z 4.B.}.` ` ` ` ` ` ",
"` ` ` ` ` F.V.K z < - - - 6 g g.h.g.Z.W.~ = 5 h M V.F.` ` ` ` ` ",
"` ` ` ` ` j.u.N 6 o r.g.t.>.C ,.,.,.;.L w.r.X @.'.S.l.` ` ` ` ` ",
"` ` ` /.U.[.R.1 %.q.4.<.2.$.7 6 6 5 j C ,.<.o ( b.3.;.W./.` ` ` ",
"` ` ` I.j.G.n.o q.D.S V 8 9 h Y Y x 9 8 B V e. .O f n l.I.` ` ` ",
"` ` ` T.V.p d $ &.p.h q % 7 l R R l 7 % B S d.&.# c C x.U.` ` ` ",
"` }._.N.6.h w P 6 f Y I : P P P U U Y U 9 j C v ..z a /.!./.|.` ",
") '.d.f.k.$ Y 7 R U P R ..{  .} { - , Y U Y S 5.F./ = ].E.s.'.` ",
"{.^.7.^. XP 5 F w U ]  .z.k.k.k.j.^ ~ : Y Y k -.k._ P e c a.^.{.",
"l.u.M 1 X R 7 V 6 + z.d.n b f n D A.:.Q Y Y U 6 Z ) ! X.[ y 7.k.",
"N.i.n 7 P F c $ Y T n V V q % G B b 4.S.^ Y Y q M k.V..X!.y s.V.",
"V.a.M 4 P P P P w.G.D k $ Y Y U U % 8 p < Y U q n d.V.  2 M a.B.",
"V.a.t `..X= Y R + @ V c U R Y Y Y U U , Y Y % 7 C j.C.O 3 r u.V.",
"x.d.C 1 . U U U l F F B U Y Y Y , A 9 O Y Y A F V d.V.X v..XT.x.",
"V.7.r 4 % A B P j F Y Y Y Y R Y R S 6.S.^ : U q C d.A.O 6 p d.x.",
"x.U..Xc.- R Y - I R Y Y E Y U Y , S 6.S.^ Y Y q n k.S.O 7 C i.N.",
"j.i.L _ P Y _ x.} $ Y Y + q V Y Y S 6.S.^ Y % 6 N ) ^ + 7 u 7.k.",
"{./.u.*.k P ] D.>.d Y W B.-.M c k C z / Y Y k -.z._ - k =.d./.[.",
"` '.j.;.C * : [ 0.f.Y R  .0.k.J D z.Z.b.U U N 4.D.! X N L j.'.` ",
"` |._.V.6.~.J.X 8.S.Y U P / O.q 7 O.K..Xx l f.3.[ P.~.4.V._.|.` ",
"` ` ` T.x.H.m.X 8.A.h w Y I P Y Y U U - q 9 9.[ X m.H.l.T.` ` ` ",
"` ` ` U.x.t s # q.A.D m P 5 h Y I w #.8.E I I Y P s y x.U.` ` ` ",
"` ` ` (.W.;.c 7 %.q.4.-.4 h j 0 q S -.r.! R Y R 6 -.;.W./.` ` ` ",
"` ` ` ` ` Y.G.p 8 o r.y.,.#.< ;.;.,.#.$ - : P q p d.z.` ` ` ` ` ",
"` ` ` ` ` ` ].D z < P E M.3.d g.h.h...= o.+.> #.K A.F.` ` ` ` ` ",
"` ` ` ` ` ` {.N.<.Z I I - P I - P ( Q * ). Xi <.B.}.` ` ` ` ` ` ",
"` ` ` ` ` ` [.B.4.C ! Q : R R : / .XL.= * & S 4.B.[.` ` ` ` ` ` ",
"` ` ` ` ` ` ` ` W.j..X Xi S S S N t u S S S V.W.` ` ` ` ` ` ` ` ",
"` ` ` ` ` ` ` ` ` ` k.k.C.C.C.C.C.C.C.C.V.A.` ` ` ` ` ` ` ` ` ` "
};
