/* XPM */
static char *rick_up[] = {
/* columns rows colors chars-per-pixel */
"32 32 43 1 ",
"  c black",
". c #187E37",
"X c #B97957",
"o c #188037",
"O c #198339",
"+ c #19843A",
"@ c #1B8B3C",
"# c #1C9340",
"$ c #1D9842",
"% c #1D9942",
"& c #1E9D44",
"* c #1FA246",
"= c #22B14C",
"- c #7AAABA",
"; c #6FB4BB",
": c #74B3BA",
"> c #72B6BD",
", c #75B8C0",
"< c #92A0A8",
"1 c #9CA7AA",
"2 c #98A7AD",
"3 c #97A9AE",
"4 c #9DA8A9",
"5 c #89A7B5",
"6 c #8FADB2",
"7 c #8AA8B5",
"8 c #BFAFA3",
"9 c #BFAFA6",
"0 c #D2BEAE",
"q c #D6C6B5",
"w c #D4C9BB",
"e c #D6C9BB",
"r c #DBCBBB",
"t c #DBCCBB",
"y c #DFCEBD",
"u c #DFCEBE",
"i c #EFE4B0",
"p c #F0E2B9",
"a c #8AAFC1",
"s c #86B3C4",
"d c #A7D5F0",
"f c #E1D2C1",
"g c #FEFEFE",
/* pixels */
"================================",
"========*@&====;================",
"========O.o===;;;=========;=====",
"========o..==;;;;======;;;;=====",
"========%.#==;;;;;;==;;;;;;=====",
"=====;;======;;;;;;;;;;;;;======",
"=====;;;;;==;;;;;;;;;;;;;=======",
"=====;;;;;;;;;531427;;;;;=======",
"======;;;;;;;;urrruf;;,;;;;=====",
"========,;;;;qeeeeu0as;;;;;d====",
"=======;;;;;;8ftru9<->;;;;===&%=",
"=====;;;;;;;;;;6:;;;;;;;;;===%.=",
"===;;;;;;;;;;;;;;;;;;;;;========",
"=====;;;;;;;;;;;;;;;;;;;;,======",
"=======;;;;;;;;;;;;;;;;;;;;=====",
"======;;;;;;;;;;;;;;;;;;;;;=====",
"======;;=;;;;;;;;;;;;;;;========",
"======;==;;;;;;;;;;;=;;;;=======",
"=========;;;=;;;i;;;==;>;;======",
"========;;;==;;;i;;;;===========",
"==*+..O&;;=  >;ggg >;  =========",
"==+....o&= ggg;ggggggg =========",
"==%.....O= ggggggggggg =========",
"=====%..#=  ggggggggg  =========",
"==========pp ggggggg pp=========",
"===&%=====p= ggg ggg =p===*%====",
"===%.======= gg X gg =====%.====",
"============    X   =======&%===",
"============XXXX=XXX=======$.===",
"======*%====XXXX=XXX============",
"======%.====    =   ============",
"============    =   ============"
};
