/* XPM */
static char *rick_down[] = {
/* columns rows colors chars-per-pixel */
"32 32 256 2 ",
"   c #000100",
".  c #000B00",
"X  c #1FB14F",
"o  c #6DB1B8",
"O  c #1FB44F",
"+  c #21AE4C",
"@  c #1FB347",
"#  c #20B24C",
"$  c #1DAF4D",
"%  c #1DB44B",
"&  c #1DB046",
"*  c #22B44B",
"=  c #18B24E",
"-  c #2EA768",
";  c #20AE50",
":  c #82B0A9",
">  c #7AB5B3",
",  c #19B34B",
"<  c #1BB346",
"1  c #18B043",
"2  c #000500",
"3  c #1BAE4A",
"4  c #1BB14B",
"5  c #15B245",
"6  c #1FAC51",
"7  c #21B550",
"8  c #24B150",
"9  c #24AF5C",
"0  c #5FC49E",
"q  c #26AB5D",
"w  c #21B348",
"e  c #17B846",
"r  c #E5E4C5",
"t  c #1FB153",
"y  c #EDE7C4",
"u  c #14B54C",
"i  c #1DB051",
"p  c #29AD5F",
"a  c #61C0A0",
"s  c #65BEA5",
"d  c #2BA264",
"f  c #6CBBAE",
"g  c #73BBBA",
"h  c #76B4B6",
"j  c #6BB6B8",
"k  c #73B3BB",
"l  c #25AD56",
"z  c #0C9939",
"x  c #0F9E3E",
"c  c #67BCAE",
"v  c #7EAEB1",
"b  c #31AB50",
"n  c #28B252",
"m  c #22AF4F",
"M  c #24AB55",
"N  c #028B2A",
"B  c #1BB350",
"V  c #28AD59",
"C  c #6CB5B1",
"Z  c #71BBB4",
"A  c #65BDB4",
"S  c #67BAB1",
"D  c #6DB7BC",
"F  c #6FB6B7",
"G  c #72B9C1",
"H  c #79B6BC",
"J  c #70B8AC",
"K  c #29A663",
"L  c #69B7AB",
"P  c #81ADAA",
"I  c #7DB2B8",
"U  c #80B3B2",
"Y  c #FEFFE8",
"T  c #53945D",
"R  c #CAEEE8",
"E  c #E2EAD2",
"W  c #DCEFD8",
"Q  c #E6E7C8",
"!  c #D4E6D2",
"~  c #DDEBCA",
"^  c #EEE6C9",
"/  c #37A657",
"(  c #26AD4E",
")  c #1CB550",
"_  c #17AD48",
"`  c #169A43",
"'  c #61BCA0",
"]  c #23AA4E",
"[  c #5FC598",
"{  c #5DC998",
"}  c #2FA46D",
"|  c #34A075",
" . c #6CBEAE",
".. c #F8FEF6",
"X. c #29AA65",
"o. c #68B7B0",
"O. c #21B557",
"+. c #5CC89E",
"@. c #28B25E",
"#. c #67BDA9",
"$. c #36A250",
"%. c #20A757",
"&. c #78B2B6",
"*. c #66C5A3",
"=. c #1CB74A",
"-. c #1FAA47",
";. c #D8EAD8",
":. c #2E9D67",
">. c #DCEBD6",
",. c #FEFFF1",
"<. c #7CAEAB",
"1. c #098134",
"2. c #D5F2E8",
"3. c #33A763",
"4. c #D8EFD8",
"5. c #EFFFFE",
"6. c #CAEADE",
"7. c #E1EBCC",
"8. c #86B1AE",
"9. c #8F8D65",
"0. c #80B0AD",
"q. c #77B0B0",
"w. c #948567",
"e. c #9B8269",
"r. c #D4EFE0",
"t. c #E8E3C5",
"y. c #E9EDCA",
"u. c #E0F5E7",
"i. c #E1E7C3",
"p. c #EEFDF2",
"a. c #8FC3B4",
"s. c #16A140",
"d. c #1EB553",
"f. c #068936",
"g. c #18B551",
"h. c #28B550",
"j. c #5BC58F",
"k. c #5BC298",
"l. c #1DAF55",
"z. c #6AB7B5",
"x. c #32A271",
"c. c #61C2A6",
"v. c #23A65C",
"b. c #73B2B4",
"n. c #72B6BE",
"m. c #7F9C6C",
"M. c #77B9C0",
"N. c #F7FFFE",
"B. c #C6EFEE",
"V. c #5D9256",
"C. c #73B3B8",
"Z. c #E0E1C9",
"A. c #D3ECDB",
"S. c #E7E6CD",
"D. c #72B6B2",
"F. c #878F68",
"G. c #3CA34A",
"H. c #818F62",
"J. c #CDF1E5",
"K. c #E0EBE1",
"L. c #80B1A4",
"P. c #D9F2DD",
"I. c #001300",
"U. c #E2E2D3",
"Y. c #689069",
"T. c #D7E8C8",
"R. c #FDFEFA",
"E. c #8ECAB0",
"W. c #028631",
"Q. c #25B158",
"!. c #069E33",
"~. c #349D7C",
"^. c #16A249",
"/. c #2BA45D",
"(. c #5CCC90",
"). c #59CD94",
"_. c #35A671",
"`. c #6FBABD",
"'. c #2CA958",
"]. c #52CA88",
"[. c #64B4B1",
"{. c #6AB7C1",
"}. c #2EA671",
"|. c #0DA53D",
" X c #60BCA9",
".X c #29A74B",
"XX c #76B0A7",
"oX c #888367",
"OX c #CEE8D4",
"+X c #DAEAD2",
"@X c #748855",
"#X c #73B0AF",
"$X c #23B254",
"%X c #FCFDE3",
"&X c #8E976C",
"*X c #6BB8A5",
"=X c #339975",
"-X c #9C8869",
";X c #419A81",
":X c #44A251",
">X c #EAE0BE",
",X c #3DA35A",
"<X c #3E9D4C",
"1X c #E9E5BE",
"2X c #B8FFC3",
"3X c #938976",
"4X c #9E8875",
"5X c #569269",
"6X c #D3EAD0",
"7X c #D8EDE4",
"8X c #968980",
"9X c #4F925A",
"0X c #BEF7D0",
"qX c #676E55",
"wX c #9DBBAF",
"eX c #509F66",
"rX c #ABBFB1",
"tX c #A1C0B6",
"yX c #033007",
"uX c #CCF2CD",
"iX c #8EA99F",
"pX c #27BC58",
"aX c #04952E",
"sX c #239C4D",
"dX c #198F40",
"fX c #5EBA9B",
"gX c #159053",
"hX c #2CA157",
"jX c #58B3A1",
"kX c #369E56",
"lX c #ECEAD5",
"zX c #BCE9E6",
"xX c #E7FFF8",
"cX c #CDF4F6",
"vX c #3AA27E",
"bX c #87A277",
"nX c #54C592",
"mX c #E9E7C1",
"MX c #DFEDD6",
"NX c #C9ECD6",
"BX c #47451A",
"VX c #92CCBD",
"CX c #7B685A",
"ZX c #79B39B",
"AX c #CBDFD4",
"SX c #CCFCE7",
"DX c #C9DCC0",
"FX c #1E3A39",
"GX c #53835D",
"HX c #DEE3DD",
"JX c #B5C0BA",
"KX c #23984A",
"LX c #4E9672",
"PX c #75B6A0",
"IX c #9CBCA4",
"UX c #00B1B8",
/* pixels */
"+ O = u e 5 B $ X @ * m d ).K q X & * w 5 $ /.3.l ; sXdX` n & @ ",
"+ X = = 3 $ i O.3 # 1 6 _.0 { - M X m ; Q.p [ j.9 ; f.1.W.( # & ",
"* + Q.p - X.9 6 n # < @.' g S a - p q X.} a J ' %.B f.1.f.] 7 @ ",
"+ n %.].k.0 } K v.p 6 -  .o k Z 0 :.}.+. XC H J d @.` W.x + 3 4 ",
"8 6 q ).s L L #.c.~.| a J I I C.Z c c o.n.k b.J *.:.V # @ w @ * ",
"+ m ^.gXs C g F [.A A f XX: 8.P <.> > b.M.o b.D.L fXd p V 6 h.1 ",
"$ n ` 1.x.c.f C G D z.D.L.2.OX4.P.A.6.: #XM.F F z.S  .#.' { l * ",
"l ] '.3.} 0 L g o n.H 0.6.4.~ 7.7.7.W 6.: #Xh k `.D o F c 0 q 4 ",
"- d _.x.| ' Z o G k v 2.! T.~ 7.y.i.~ >.r.R v &.n.o D S +.X.9 i ",
"j.{ k.a s  .C C.k I cX6.4.+X4.6X! W ;.A.u.R B.U k G j jX}.v.@.l.",
"K (.*.#.A [.Z > <.zXv v P : : U I q.> q.> <.J.R h j Z ;X| - /.'.",
"9 q :.s j D F XXJ.2.0.v 8.P : <.v &.I q.> : A.r.> F Z *Xs [ (.hX",
"g.O.M } A {.g 0.OXW r.xX5.p.;.>.;.7X5.5.5.! E W U o o g z.s j.3.",
"= i p x.A G o : >.Z.+X..  ,.Y r Q Y ,.  ,.E S.>.P k n.D o.a d p ",
"V K a S `.o H 8.E ^ r %XY Y t.t.1XmX%X,.Y Z.lX;.P h C.f | X.l.g.",
"l ].0 c o.D.&.R E y y >Xr ^ t.y 1Xy r r Q S.U.K.B.h b.f [ v.d.u ",
") = l - c.L U R MXQ y >Xy ^ y BX2 i.y.r y.Q Z.K.B.H b.Z  .[ q O ",
"5 =.5 p =Xf > L.NXW r ^ ^ t.r i.~ T.i.y.i.E ! 2.v H C f s k.p _ ",
"# $ 8 v.vXc L J *XZXP.U.U.    2 I.yXI.~ DXu.8.q.C.F S ~.- M $ 7 ",
"s.x m q nX0 *.=X;XPXiXK.HX  AXr.Y.GXY.T.! iX0.D.c #. X+.M * 1 % ",
"` N 3 X @.%.q 3.LX.     u.7XJ.SX0X5XuXu..   FXL.:.K +.{ M w , , ",
".Xn 4 5 7 $ x KX. p.R...  tXa.E.E.E.IX  N.N.N.2 / ; d - ] & pX= ",
"( ( 7 |.x $Xz 1.2 ..  R.JX. a.VXa.a.. rXN.  N.. / 8 V V m s.z $X",
"m + # !.N ; l ,X2     ....  rXwXtXwX2 p.p.    . / + $ t X x N ; ",
"; X % 1 # # $ / uX6X. 2     3X3X3X8X      2 P.0X/ X ) = X 7 4 % ",
"; $ , < @ # $ b 2X9XeXeXqX4X-Xe.e.4XCXqXyX9XT 2X.XB u g.O 4 O , ",
"X 7 # * n s.z b b b -.<XF.e.w.9.9.9.w.H.:Xb $.b h.< =.< < _ 7 t ",
"3 # 1 1 m z N ] $ % =.G.F.e.F.@X@XH.-X&XG.w -.+ |.!.@ < w w 3 ; ",
"* < e e , X ; ; X $ # G.H.w.m.V.V.bXw.9.<X7 O.l.z aX& & w w & # ",
"& 1 e e 5 O d.i ^.z # $.m.oXm.V.T Y.oX&X:X_ O.t 6 -.# @ w -.* % ",
"# # % # # $ _ d.x N # $..   . T T I.    ,XX 3 # 6 t , =.* 4 ) = ",
"X $ # # ( 8 B = + + X $..   2 5XT I.  . kX# * & t t u 5 4 ) = g."
};
