/* XPM */
static char *rick_left[] = {
/* columns rows colors chars-per-pixel */
"32 32 16 1 ",
"  c black",
". c #187E37",
"X c #B97A57",
"o c #188037",
"O c #19843A",
"+ c #1C9340",
"@ c #1D9842",
"# c #1E9D44",
"$ c #1EA045",
"% c #1FA246",
"& c #22B14C",
"* c #6FB4BB",
"= c #69D0D6",
"- c #F0E2B9",
"; c #FAFDFD",
": c white",
/* pixels */
"&&&&&&&&&&&&&&&&&&&&&&&&&&&&&&&&",
"&&&&&&&&&&&&&&&&&&&&&&&&&&&&&&&&",
"&&&&&&&&&&&&&&&*&&&&&***&&&&&&&&",
"&&&&&&&&&&&&&&**&&&&***&&&&&&&$@",
"&&&&&&&$@&&&&****&&****&&&&&&&@.",
"&&&&&&&@.&&&&****&*****&&&&&&&&&",
"&&&&&&&&&&&;************&&&&&&&&",
"&&&&&&&&&&&****************&&&&&",
"&&&&&&&&&&&*****************&&&&",
"&&&&&&&&&&------*************&&&",
"&&&&&&&&&&--------*********&&&&&",
"&&&&&&&&&----------******&&&&&&&",
"&&&&&&&&&*****------*******&&&&&",
"&&$@&&&&&*****------********&&&&",
"&&@.&&&&&:&:--------*********&&&",
"&&&&&&&&& ::----------******&&&&",
"&&&&&&&&&-------------****&&&&&&",
"&&&&&&&&------------*******&&&&&",
"&&$OO#&------------*********&&&&",
"&&O..o&&&---------*******&&&&&&&",
"&&@o.+&&&  -------::******&&&&&&",
"&&&&&&&&&&- ------:: &&***=&&&&&",
"&&&&&&&&&&&-----: ::: &&&*=&&&&&",
"&&&&&&&&&&&&&= :: :: : &&&&&&&&&",
"&&&&&&&&&&&&&== ::  ::: &&&&&&&&",
"&&&&&&&&&&&&&&XXXX--    &&&&&&&&",
"&&&&&&&&&&&&&&XXXX--&&&&&&&&&&&&",
"&&&&&&&&&&&&&&&XXX&-&&&&&&&&&&&&",
"&&$OO#&&&&&&&&&XXX&&&&&&&&&$@&&&",
"&&O..o&&&&&&&&&XXX&&&&&&&&&@.&&&",
"&&@..+&&&&&&&&    &&&&&&&&&&&&&&",
"&&&&&&&&&&&&&     &&&&&&&&&&&&&&"
};
