/* XPM */
static char *two[] = {
/* columns rows colors chars-per-pixel */
"16 16 17 1 ",
"  c black",
". c #3A0000",
"X c #00003A",
"o c #660000",
"O c #000066",
"+ c #B66600",
"@ c #DB903A",
"# c #FFB666",
"$ c #003A90",
"% c #0066B6",
"& c #66B6FF",
"* c #FFDB90",
"= c #FFFFB6",
"- c #90DBFF",
"; c #B6FFFF",
": c #C3C3C3",
"> c #DBFFFF",
/* pixels */
"::::::::::::::::",
"::::::::::::::::",
"::::::::::::::::",
":::::@   $>:::::",
"::::@$>:=o$>::::",
":::::::::@X-::::",
":::::::::@ &::::",
":::::::::+X-::::",
"::::::::# %:::::",
":::::::# O;:::::",
"::::::*.O;::::::",
":::::*.O;:::::::",
"::::*.O;::::::::",
"::::+      $>:::",
"::::::::::::::::",
"::::::::::::::::"
};
