/* XPM */
static char *wall[] = {
/* columns rows colors chars-per-pixel */
"33 32 22 1 ",
"  c black",
". c #187E37",
"X c #6B4232",
"o c #ED1C24",
"O c #FF7F27",
"+ c #9B5F48",
"@ c #B97A57",
"# c #188037",
"$ c #19843A",
"% c #1C9340",
"& c #1D9842",
"* c #1D9942",
"= c #1E9D44",
"- c #1EA045",
"; c #1FA246",
": c #22B14C",
"> c #37D968",
", c #FFC90E",
"< c #FFF200",
"1 c #AAAAAA",
"2 c #EFE4B0",
"3 c #C3C3C3",
/* pixels */
":::::::::::::>>::::::::::::::::::",
":::::::::::>>>>>>::::::::::::::::",
"::::::::::>><o,>>>:::::::::::::::",
"::::::::::>><O 2>::::::::::::::::",
":::::::::::>>>22>>:::::::::::::::",
"::::::::::::>222:::::::::::::::::",
":::::::::::::222:::::::::::::::::",
":::::::::::::222:::::::::::::::::",
":::::::::11333333333:::::::::::::",
"::::::-X@@@13333333@:::::::::::::",
"::::::&XXXX@@@@@@@@@@@@@:::::::::",
":::::::XXXX+++++++++++++:::::::::",
":::::::XXXX+++++++++++++:::::::::",
":::::::XXXX+++++++++++++:::::-$$=",
":::::::XXXX+++++++++++++:::::$..#",
":::::::XXXX+++++++++++++:::::&..%",
":::::::XXXX+++++++++++++::-&:::::",
":::::::XXXX+++++++++++++:::::::::",
":::::::XXXX+++++++++++++:::::::::",
":::::::XXXX+++++++++++++:::::::::",
"::::::-XXXX+++++++++++++:::::::::",
"::::::&XXXX+++++++++++++:::::::::",
":::::::XXXX+++++++++++++:::::::::",
":::::::XXXX+++++++++++++::::;::::",
"::::::XXXXX+++++++++++++::::$$$=:",
"::::::XXXXX+++++++++++++::::&#.#:",
":::::XXXXXXXXXXXXXXXXXXXXX:::..%:",
":::::XXXX++++++++++++++++++::::::",
"::::XXXXXXXXXXXXXXXXXXXXXXX::::::",
"::::XXXX+++++++++++++++++++::::::",
"::::XXXX+++++++++++++++++++::::::",
":::::::::::::::::::::::::::::::::"
};
