/* XPM */
static char *_632744121208[] = {
/* columns rows colors chars-per-pixel */
"16 16 22 1 ",
"  c black",
". c #3A0000",
"X c #00003A",
"o c #660000",
"O c #000066",
"+ c #903A00",
"@ c #B66600",
"# c #DB903A",
"$ c #B6B666",
"% c #FFB666",
"& c #003A90",
"* c #0066B6",
"= c #66B6B6",
"- c #3A90DB",
"; c #66B6FF",
": c #FFDB90",
"> c #FFFFB6",
", c #90DBFF",
"< c #B6FFFF",
"1 c #C3C3C3",
"2 c #FFFFDB",
"3 c #DBFFFF",
/* pixels */
"1111111111111111",
"1111111111111111",
"1111111111111111",
"11111>o  X,11111",
"1111>o*11# ;1111",
"1111@&3112+&3111",
"111>o-111% O<111",
"111:.;11#O$X,111",
"111:.;1@&3% ;111",
"111:.=o-11%X,111",
"111>o ;111#O<111",
"1111@&3112+*1111",
"1111:.*11#X,1111",
"11111:.  O<11111",
"1111111111111111",
"1111111111111111"
};
