/* XPM */
static char *collectible[] = {
/* columns rows colors chars-per-pixel */
"32 32 5 1 ",
"  c #25131A",
". c #3D253B",
"X c #C09344",
"o c #FFD569",
"O c #FFF1CC",
/* pixels */
"................................",
"................................",
"................................",
"................................",
"................................",
"................................",
".............        ...........",
".............        ...........",
"...........  XXXXXXXX  .........",
"...........  XXXXXXXX  .........",
".........  XXOOOOOOooXX  .......",
".........  XXOOOOOOooXX  .......",
".......  XXOOOOXXXXooOOXX  .....",
".......  XXOOOOXXXXooOOXX  .....",
".......  XXOOXXOOooXXooXX  .....",
".......  XXOOXXOOooXXooXX  .....",
".......  XXooXXooooXXooXX  .....",
".......  XXooXXooooXXooXX  .....",
".......  XXOOooXXXXooooXX  .....",
".......  XXOOooXXXXooooXX  .....",
".........  XXooooooooXX  .......",
".........  XXooooooooXX  .......",
"...........  XXXXXXXX  .........",
"...........  XXXXXXXX  .........",
".............        ...........",
".............        ...........",
"................................",
"................................",
"................................",
"................................",
"................................",
"................................"
};
