/* XPM */
static char *ground4[] = {
/* columns rows colors chars-per-pixel */
"32 32 3 1 ",
"  c #25131A",
". c #362030",
"X c #3D253B",
/* pixels */
"............................... ",
"XXXXXXXXXXXXXXXX.XXXXXXXXXXXXX. ",
"XXXXXXXXXXXXXXXX.XXXXXXXXXXXXX. ",
"XXXXXXXXXXXXXXXX...X..X.XXXXXX. ",
"XXXXXXXXXXXXXXXXXXXXXXXXXXXXXX. ",
"XXXXXXXXXXXXXXXXXXXXXXXXXXXXXX. ",
"XXXXXXXXXXXXXXXXXXXXXXXXXXXXXX. ",
"XXXXXXXXXXXXXXXXXXXXXXXXXXXXXX. ",
"............X.XXXXXXXXXXXXXXXX. ",
"XXXXXXXXXXXXXXX.XXXXXXXXXXXXXX. ",
"XXXXXXXXXXXXXXX.XXXXXXXXXXXXXX. ",
"XXXXXXXXXXXXXXX.XXXXXXXXXXXXXX. ",
"XXXXXXXXXXXXXXX.XXXXXXXXXXXXXX. ",
"XXXXXXXXXXXXXXX.XXXXXXXXXXXXXX. ",
"XXXXXXXXXX......XXXXXXXXX.X.... ",
"XXXXXXXXXXXXXXXXXXXXXXXXXXXXXX. ",
"XXXXXXXXXXXXXXXXXXXXXXXXXXXXXX. ",
"XXXXXXXXXXXXXXXXXXXXXXXXXXXXXX. ",
"XXXXXXXXXXXXXXXXXXXXXXXXXXXXXX. ",
"XXXXXXXXXXXXXXXXXXXXXXXXXXXXXX. ",
"XXXXXXXXXXXXXXXXXXXXXXXXXXXXXX. ",
"XXXXXXXXXXXXXXXXXXXXXXXXXXXXXX. ",
"XXXXXXXXXXXXXXXXXXXXXXXXXXXXXX. ",
"XXXXXXXXXXXXXXXXXXXXXXXXXXXXXX. ",
"XXXXXXXXXXXXXXXXXXXXXXXXXXXXXX. ",
"XXXXXXXXXXXXXXXXXXXXXXXXXXXXXX. ",
"XXXXXXXXXXXXXXXXXXXXXXXXXXXXXX. ",
"XXXXXXXXXXXXXXXXXXXXXXXXXXXXXX. ",
"XXXXXXXXXXXXXXXX.XXXXXXXXXXXXX. ",
"XXXXXXXXXXXXXXXX.XXXXXXXXXXXXX. ",
"XXXXXXXXXXXXXXXX.........XXXXX. ",
"...........X.XXXXXXXXXXXXXXXXX. "
};
