/* XPM */
static char *ground2[] = {
/* columns rows colors chars-per-pixel */
"32 32 3 1 ",
"  c #25131A",
". c #362030",
"X c #3D253B",
/* pixels */
"                                ",
"................................",
"XXXXXXXXXXXXXXXXXXXXXXXXX.XXXXXX",
"XXXXXXXXXXXXXXXXXXXXXXXXX.XXXXXX",
"XXXXXXXX.XXXXXXXXXXXXXXXX.XXXXXX",
"XXXXXXXX.XXXXXXXXXXXXXXXX.XXXXXX",
"XXXXXXXX.XXXXXXXXXXXXXXXXXXXXXXX",
"X...........X.XXXXXXXXXXX.XXXXXX",
"XXXXXXXXXXXXXXXXXXXXXXXXXXXXXXXX",
"XXXXXXXXXXXXXXXXXXXXXXXXXXXXXXXX",
"XXXXXXXXXXXXXXX.XXXXXXXXXXXXXXXX",
"XXXXXXXXXXXXXXX.XXXXXXXXXXXXXXXX",
"XXXXXXXXXXXXXXXXXXXXXXXXXXXXXXXX",
"XXXXXXXXXXXXXXX.XXXXXXXXXXXXXXXX",
"XXXXXXXXXXXXXXX.XXXXXXXXXXXXXXXX",
"XXXXXXXXXX......XXXXXXXXXXXXXXXX",
"XXXXXXXXXXXXXXXXXXXXXXXXXXXXXXXX",
"XXXXXXXXXXXXXXXXXXXXXXXXXXXXXXXX",
"XXXXXXXXXXXXXXXXXXXXXXXXX.XXXXXX",
"XXXXXXXXXXXXXXXXXXXXXXXXX.XXXXXX",
"XXXXXXXX.XXXXXXXXXXXXXXXX.XXXXXX",
"XXXXXXXX.XXXXXXXXXXXXXXXX.XXXXXX",
"XXXXXXXX.XXXXXXXXXXXXXXXXXXXXXXX",
"X...........X.XXXXXXXXXXX.XXXXXX",
"XXXXXXXXXXXXXXXXXXXXXXXXXXXXXXXX",
"XXXXXXXXXXXXXXXXXXXXXXXXXXXXXXXX",
"XXXXXXXXXXXXXXX.XXXXXXXXXXXXXXXX",
"XXXXXXXXXXXXXXX.XXXXXXXXXXXXXXXX",
"XXXXXXXXXXXXXXXXXXXXXXXXXXXXXXXX",
"XXXXXXXXXXXXXXX.XXXXXXXXXXXXXXXX",
"XXXXXXXXXXXXXXX.XXXXXXXXXXXXXXXX",
"XXXXXXXXXX......XXXXXXXXXXXXXXXX"
};
