/* XPM */
static char *ground1[] = {
/* columns rows colors chars-per-pixel */
"32 32 2 1 ",
"  c #362030",
". c #3D253B",
/* pixels */
".............. .................",
"...... ....... .................",
"...... ....... .................",
"...... .........................",
"...... ....... .................",
"...... .........................",
"...... .........................",
".      ........            . ...",
".............................. .",
".............................. .",
".............................. .",
"........................ ..... .",
"........................ ..... .",
"........................       .",
"................................",
"................................",
".............. .................",
"...... ....... .................",
"...... ....... .................",
"...... .........................",
"...... ....... .................",
"...... .........................",
"...... .........................",
".      ........            . ...",
".............................. .",
".............................. .",
".............................. .",
"........................ ..... .",
"........................ ..... .",
"........................       .",
"........................       .",
"........................       ."
};
