/* XPM */
static char *monsterup[] = {
/* columns rows colors chars-per-pixel */
"32 32 9 1 ",
"  c #25131A",
". c #3D253A",
"X c #50304D",
"o c #6A4066",
"O c #774872",
"+ c #BC4C51",
"@ c #577EA1",
"# c #62ABD4",
"$ c #CDD5D0",
/* pixels */
"++++++....................++++++",
"++++++.........OO.........++++++",
"..+++.XXXXX  ...O..XXXXX...+++..",
"..+++X...XX  ...XX..O......+++..",
".....XXX.. ##    X.oo...........",
"...XXXXXo. ##     ....o.oo......",
"..X..XXX.. ##$####   .o.Ooo.....",
"..X..XXX.X ##$####   XX.O.ooo...",
"...XX.  o..  #$$$#### XXo..XX...",
"..XXo.  ...  ##$##### .Xoo......",
".XXXo ##   ##$###$$## .XX...X...",
".XXX. ##   ##$$#$#$## ..XXo.X...",
".XXo. $$#####        #  XXo.X.  ",
".X... $$#####        #  X.ooX.  ",
".X...   $#$  @#####@@   X..oX...",
".XXO.   ##$  @#####@@   ..ooX...",
"..XX..  ## @@########@  ..o.X...",
"...XO.X $$ @@########@  .ooXX...",
"...X....   @@########   ...XX...",
".o.XXX..   @@########   .X.OX...",
"....oXXO.. @@########   .X.O....",
".....ooOO. @##########  ...O....",
"..X...o.O..  @#######@  ...O....",
"..X...o.XX.  @#######@  oo....X.",
"..XXX..X.XX.. @@## @@ .oo.......",
"....XXXX..... @@## @@ oo........",
"......X.oo.OO.    .  oo....O....",
".......Xo...O.    .  o....OO....",
"..+++...X...OO...o.........+++..",
"..+++...XX.................+++..",
"++++++...XXXXX....OOO.....++++++",
"++++++.......XX...........++++++"
};
