/* XPM */
static char *exit[] = {
/* columns rows colors chars-per-pixel */
"32 32 7 1 ",
"  c #25131A",
". c #523B40",
"X c #895A45",
"o c #BF704D",
"O c #FFF200",
"+ c #90919E",
"@ c #ADC1CF",
/* pixels */
"OOOOOOooooOOOOOOOOOOOOooooOOOOOO",
"OOOOOOooooOOOOOOOOOOOOooooOOOOOO",
"OOOOOOXXXXOOOOOOOOOOOOXXXXOOOOOO",
"OOOOOOXXXXOOOOOOOOOOOOXXXXOOOOOO",
"OOOOOOXXXXOOOOOOOOOOOOXXXXOOOOOO",
"OOOOOOXXXXOOOOOOOOOOOOXXXXOOOOOO",
"    oo++@@oooooooooooo@@++oo    ",
"    oo++@@oooooooooooo@@++oo    ",
"    XXXXXXXXXXXXXXXXXXXXXXXX    ",
"    XXXXXXXXXXXXXXXXXXXXXXXX    ",
"      ....            ....      ",
"      ....            ....      ",
"      XXXX            XXXX      ",
"      XXXX            XXXX      ",
"      XXXX            XXXX      ",
"      XXXX            XXXX      ",
"      XXXX            XXXX      ",
"      XXXX            XXXX      ",
"      XXXX            XXXX      ",
"      XXXX            XXXX      ",
"      XXXX            XXXX      ",
"      XXXX            XXXX      ",
"    oo++@@oooooooooooo@@++oo    ",
"    oo++@@oooooooooooo@@++oo    ",
"    XXXXXXXXXXXXXXXXXXXXXXXX    ",
"    XXXXXXXXXXXXXXXXXXXXXXXX    ",
"      ....            ....      ",
"      ....            ....      ",
"      XXXX            XXXX      ",
"      XXXX            XXXX      ",
"      XXXX            XXXX      ",
"      XXXX            XXXX      "
};
