/* XPM */
static char *ground3[] = {
/* columns rows colors chars-per-pixel */
"33 32 2 1 ",
"  c #362030",
". c #3D253B",
/* pixels */
" ............. ............... ..",
" ............. ............... ..",
" ...... .  .   ............... ..",
" ............................. ..",
" ............................. ..",
" ............................. ..",
" ................................",
" .............................   ",
" ................................",
" ................................",
" ..................... ..........",
" ..................... ..........",
" ..................... ..........",
"    . .........           . .....",
" ............. ..................",
" ............. ..................",
" ............. ..................",
" ............. ....... ..........",
" ............. ....... ..........",
" ..................... ..........",
" ............. .......         ..",
" ..................... ....... ..",
" ..................... ....... ..",
" ..................... ..........",
" ................................",
" ................................",
" ............. ..................",
" ............. ..................",
" ............. ..................",
" .....         ..................",
" ........................        ",
" ............................. .."
};
