/* XPM */
static char *monsterleft[] = {
/* columns rows colors chars-per-pixel */
"32 32 10 1 ",
"  c #25131A",
". c #3D253A",
"X c #50304D",
"o c #593756",
"O c #6A4066",
"+ c #774872",
"@ c #BC4C51",
"# c #577EA1",
"$ c #62ABD4",
"% c #CDD5D0",
/* pixels */
"@@@@@@....................@@@@@@",
"@@@@@@.........++.........@@@@@@",
"..@@@...XXXXX..+...  XXXXX.@@@..",
"..@@@......+..XX...  XX...X@@@..",
"...........OO.X    $$ ..XXX.....",
"......OO.O....     $$ .OXXXXX...",
".....OO+.O.   $$$$%$$ ..XXX..X..",
"...OOO.+.XX   $$$$%$$ X.XXX..X..",
"...XX..OXX $$$%%%%$  ..O  .XX...",
"......OOX. $$$%%%%$  ...  .OXX..",
"...X...XX. $$%%%%%%$$   $$ OXXX.",
"...X.OXX.. $$%%%%%%$$   $$ .XXX.",
"  .X.OXX  $        $$$$$%% .OXX.",
"  .XOO.X  $        $$$$$%% ...X.",
"...XO..X   ##$$$$$#  %%%   ...X.",
"...XOO..   ##$$$$$#  %%%   .+XX.",
"...X.O..  #$$$$$$$$## %%  ..XX..",
"...XXOO.  #$$$$$$$$## %% X.+X...",
"...XX...   oo$  ooo##   ....X...",
"...X+.X.   oo$  ooo##   ..XXX.O.",
"....+.X.     $     ## ..+XXO....",
"....+...     $     ## .++OO.....",
"....+...  #$$$$$$$#  ..+.O...X..",
".X....OO  #$$$$$$$#  .XX.O...X..",
".......OO. ## $$## ..XX.X..XXX..",
"........OO ## $$## .....XXXX....",
"....+....OO  .    .++.OO.X......",
"....++....O  .    .+...OX.......",
"..@@@.........O...++...X...@@@..",
"..@@@.................XX...@@@..",
"@@@@@@.....+++....XXXXX...@@@@@@",
"@@@@@@...........XX.......@@@@@@"
};
