/* XPM */
static char *monsterright[] = {
/* columns rows colors chars-per-pixel */
"32 32 10 1 ",
"  c #25131A",
". c #3D253A",
"X c #50304D",
"o c #593756",
"O c #6A4066",
"+ c #774872",
"@ c #BC4C51",
"# c #577EA1",
"$ c #62ABD4",
"% c #CDD5D0",
/* pixels */
"@@@@@@....................@@@@@@",
"@@@@@@.........++.........@@@@@@",
"..@@@.XXXXX  ...+..XXXXX...@@@..",
"..@@@X...XX  ...XX..+......@@@..",
".....XXX.. $$    X.OO...........",
"...XXXXXO. $$     ....O.OO......",
"..X..XXX.. $$%$$$$   .O.+OO.....",
"..X..XXX.X $$%$$$$   XX.+.OOO...",
"...XX.  O..  $%%%%$$$ XXO..XX...",
"..XXO.  ...  $%%%%$$$ .XOO......",
".XXXO $$   $$%%%%%%$$ .XX...X...",
".XXX. $$   $$%%%%%%$$ ..XXO.X...",
".XXO. %%$$$$$        $  XXO.X.  ",
".X... %%$$$$$        $  X.OOX.  ",
".X...   %%%  #$$$$$##   X..OX...",
".XX+.   %%%  #$$$$$##   ..OOX...",
"..XX..  %% ##$$$$$$$$#  ..O.X...",
"...X+.X %% ##$$$$$$$$#  .OOXX...",
"...X....   ##ooo  $oo   ...XX...",
".O.XXX..   ##ooo  $oo   .X.+X...",
"....OXX+.. ##     $     .X.+....",
".....OO++. ##     $     ...+....",
"..X...O.+..  #$$$$$$$#  ...+....",
"..X...O.XX.  #$$$$$$$#  OO....X.",
"..XXX..X.XX.. ##$$ ## .OO.......",
"....XXXX..... ##$$ ## OO........",
"......X.OO.++.    .  OO....+....",
".......XO...+.    .  O....++....",
"..@@@...X...++...O.........@@@..",
"..@@@...XX.................@@@..",
"@@@@@@...XXXXX....+++.....@@@@@@",
"@@@@@@.......XX...........@@@@@@"
};
