/* XPM */
static char *player_right[] = {
/* columns rows colors chars-per-pixel */
"32 32 10 1 ",
"  c #25131A",
". c #3D253C",
"X c #373737",
"o c #75727D",
"O c #895A45",
"+ c #BF704D",
"@ c #62ABD4",
"# c #8B8B97",
"$ c #90919E",
"% c #ADC1CF",
/* pixels */
"@@......            ..........@@",
"@@......            ..........@@",
"......  %%$$$$$$$$$$  ..........",
"......  %%$$$$$$$$$$  ..........",
"....  %%$$            ..........",
"....  %%$$            ..........",
"....  $$$$  %%  %%  %%  ..    ..",
"....  $$$$  %%  %%  %%  ..    ..",
"....  $$%%  %%  %%  %%  ..  %%  ",
"....  $$%%  %%  %%  %%  ..  %%  ",
"....  $$%%%%%%%%%%%%%%  ..  %%  ",
"....  $$%%%%%%%%%%%%%%  ..  %%  ",
"....    $$$$$$    oo  ....  ++..",
"....    $$$$$$    oo  ....  ++..",
"....  XX  $$$$$$##  ......OO  ..",
"....  XX  $$$$$$##  ......OO  ..",
"..    XXXXXX  %%              ..",
"..    XXXXXX  %%              ..",
"  $$%%  XX  $$$$%%XX%%  OO++  ..",
"  $$%%  XX  $$$$%%XX%%  OO++  ..",
"  $$%%  XXXX  %%  XX%%    ++  ..",
"  $$%%  XXXX  %%  XX%%    ++  ..",
"  OO    OO++  %%  ++          ..",
"  OO    OO++  %%  ++          ..",
"      XXXXXX    XXXX  ..  OO  ..",
"      XXXXXX    XXXX  ..  OO  ..",
"..  XXXXXXXX  ++  XXXX  ++  ....",
"..  XXXXXXXX  ++  XXXX  ++  ....",
"..  XXXXXXXX  OO  XXXX  OO  ....",
"..  XXXXXXXX  OO  XXXX  OO  ....",
"@@............................@@",
"@@............................@@"
};
