/* XPM */
static char *player_left[] = {
/* columns rows colors chars-per-pixel */
"32 32 10 1 ",
"  c #25131A",
". c #3D253C",
"X c #373737",
"o c #75727D",
"O c #895A45",
"+ c #BF704D",
"@ c #62ABD4",
"# c #8B8B97",
"$ c #90919E",
"% c #ADC1CF",
/* pixels */
"@@..........            ......@@",
"@@..........            ......@@",
"..........  $$$$$$$$$$%%  ......",
"..........  $$$$$$$$$$%%  ......",
"..........            $$%%  ....",
"..........            $$%%  ....",
"..    ..  %%  %%  %%  $$$$  ....",
"..    ..  %%  %%  %%  $$$$  ....",
"  %%  ..  %%  %%  %%  %%$$  ....",
"  %%  ..  %%  %%  %%  %%$$  ....",
"  %%  ..  %%%%%%%%%%%%%%$$  ....",
"  %%  ..  %%%%%%%%%%%%%%$$  ....",
"..++  ....  oo    $$$$$$    ....",
"..++  ....  oo    $$$$$$    ....",
"..  OO......  ##$$$$$$  XX  ....",
"..  OO......  ##$$$$$$  XX  ....",
"..              %%  XXXXXX    ..",
"..              %%  XXXXXX    ..",
"..  ++OO  %%XX%%$$$$  XX  %%$$  ",
"..  ++OO  %%XX%%$$$$  XX  %%$$  ",
"..  ++    %%XX  %%  XXXX  %%$$  ",
"..  ++    %%XX  %%  XXXX  %%$$  ",
"..          ++  %%  ++OO    OO  ",
"..          ++  %%  ++OO    OO  ",
"..  OO  ..  XXXX    XXXXXX      ",
"..  OO  ..  XXXX    XXXXXX      ",
"....  ++  XXXX  ++  XXXXXXXX  ..",
"....  ++  XXXX  ++  XXXXXXXX  ..",
"....  OO  XXXX  OO  XXXXXXXX  ..",
"....  OO  XXXX  OO  XXXXXXXX  ..",
"@@............................@@",
"@@............................@@"
};
