/* XPM */
static char *player_up[] = {
/* columns rows colors chars-per-pixel */
"32 32 8 1 ",
"  c #25131A",
". c #3D253C",
"X c #373737",
"o c #895A45",
"O c #BF704D",
"+ c #62ABD4",
"@ c #90919E",
"# c #ADC1CF",
/* pixels */
"++..........            ......++",
"++..........            ......++",
"..........  @@@@@@@@@@##  ......",
"..........  @@@@@@@@@@##  ......",
"..........  ##########@@##  ....",
"..........  ##########@@##  ....",
"..    ..  ##@#@#@##@##@@@@  ....",
"..    ..  ##@#@#@##@##@@@@  ....",
"  ##  ..  ##@#@#@##@####@@  ....",
"  ##  ..  ##@#@#@##@####@@  ....",
"  ##  ..  ##@#@#@##@####@@  ....",
"  ##  ..  ##############@@  ....",
"..OO  ....  XXXXXXXXXXXX    ....",
"..OO  ....  XXXXXXXXXXXX    ....",
"..  oo......X XXXXXXXX  XX  ....",
"..  oo......  XXXXXXXX  XX  ....",
"..              XX  XXXXXX    ..",
"..              XX  XXXXXX    ..",
"..  OOoo  ##XXXXXXXX  XX  ##@X  ",
"..  OOoo  ##XXXXXXXX  XX  ##@@  ",
"..  OO    ##XX  XX  XXXX  ##@@  ",
"..  OO    ##XX  XX  XXXX  ##@@  ",
"..          OO  XX  OOoo    oo  ",
"..          OO  XX  OOoo    oo  ",
"..  oo  ..  XXXX    XXXXXX      ",
"..  oo  ..  XXXX    XXXXXX      ",
"....  ..  XXXX  ..  XXXXXXXX  ..",
"....  ..  XXXX  ..  XXXXXXXX  ..",
"....  ..  XXXX  ..  XXXXXXXX  ..",
"....  ..  XXXX  ..  XXXXXXXX  ..",
"++............................++",
"++............................++"
};
