/* XPM */
static char *wallleft1[] = {
/* columns rows colors chars-per-pixel */
"32 32 4 1 ",
"  c #25131A",
". c #4C2F49",
"X c #6E4A48",
"o c #78514F",
/* pixels */
"                   .............",
"                   .............",
"                 ..ooXXooooooo..",
"                 ..ooXXooooooo..",
"                 ..XXXXXXXXXoo..",
"                 ..XXXXXXXXXoo..",
"                 ..XXXXXXXXXoo..",
"                 ..XXXXXXXXXoo..",
"                 ..XXXXXXXXXoo..",
"                 ..XXXXXXXXXoo..",
"                 ..XXXXXXXXXoo..",
"                 ..XXXXXXXXXoo..",
"                 ..XXXXXXXXXoo..",
"                 ...............",
"                 ...............",
"                 ...............",
"                 ...............",
"                 ..ooXXooooooo..",
"                 ..ooXXooooooo..",
"                 ..XXXXXXXXXoo..",
"                 ..XXXXXXXXXoo..",
"                 ..XXXXXXXXXoo..",
"                 ..XXXXXXXXXoo..",
"                 ..XXXXXXXXXoo..",
"                 ..XXXXXXXXXoo..",
"                 ..XXXXXXXXXoo..",
"                 ..ooXXooooooo..",
"                 ..ooXXooooooo..",
"                 ...............",
"                 ...............",
"                 ...............",
"                 ..............."
};
