/* XPM */
static char *wallright1[] = {
/* columns rows colors chars-per-pixel */
"32 32 4 1 ",
"  c #25131A",
". c #4C2F49",
"X c #6E4A48",
"o c #78514F",
/* pixels */
"..ooooooXXoo..                  ",
"..ooooooXXoo..                  ",
"..ooXXXXXXXX..                  ",
"..ooXXXXXXXX..                  ",
"..ooXXXXXXXX..                  ",
"..ooXXXXXXXX..                  ",
"..ooXXXXXXXX..                  ",
"..ooXXXXXXXX..                  ",
"..ooXXXXXXXX..                  ",
"..ooXXXXXXXX..                  ",
"..ooXXXXXXXX..                  ",
"..ooXXXXXXXX..                  ",
"..............                  ",
"..............                  ",
"..............                  ",
"..............                  ",
"..ooooooXXoo..                  ",
"..ooooooXXoo..                  ",
"..ooXXXXXXXX..                  ",
"..ooXXXXXXXX..                  ",
"..ooXXXXXXXX..                  ",
"..ooXXXXXXXX..                  ",
"..ooXXXXXXXX..                  ",
"..ooXXXXXXXX..                  ",
"..ooXXXXXXXX..                  ",
"..ooXXXXXXXX..                  ",
"..ooooooXXoo..                  ",
"..ooooooXXoo..                  ",
"..............                  ",
"..............                  ",
"..............                  ",
"..............                  "
};
