/* XPM */
static char *wallin[] = {
/* columns rows colors chars-per-pixel */
"32 32 11 1 ",
"  c #25131A",
". c #3D253A",
"X c #50304D",
"o c #6A4066",
"O c #774872",
"+ c #FF7F27",
"@ c #FFF200",
"# c #BB966B",
"$ c #FFD569",
"% c #90919E",
"& c #ADC1CF",
/* pixels */
"................................",
"...........XXXXXX...............",
".........XXXXoooXXXXX...........",
".........XXXooOOooXXX...........",
"........XXoooOXOXoooX...........",
".......XXXXOOOOOOOXoXX..........",
"........XXXOOO+OOOoooX..........",
"........XXOOO+@+OOoOXX..........",
".......XXOoOO@+@OOooXX..........",
".......XXOoOO@@+OOXoXX..........",
"........XXoOO+$+OOoooX..........",
"........XXXX###  ooXXX..........",
"........XXX.###  ooXX...........",
"..........XX###  XXX............",
"............###  ...............",
".........   ###      ...........",
".........   ###      ...........",
".......  %&&##   &&%% ..........",
"......... %%&&&&&%%  ...........",
"......... %%&&&&&%%  ...........",
"..........         .............",
"..........         .............",
"............  %  ...............",
"............  %  ...............",
"............  %  ...............",
"............  &  ...............",
"............  &  ...............",
"............  &    .............",
"......... %%&&&&&%%  ...........",
"......... %%&&&&&%%  ...........",
"......... %%&&&&&%%  ...........",
".......  &         && .........."
};
