/* XPM */
static char *wallup4[] = {
/* columns rows colors chars-per-pixel */
"32 32 10 1 ",
"  c #25131A",
". c #3D253B",
"X c #422C3B",
"o c #4C2F49",
"O c #483040",
"+ c #4F3740",
"@ c #543740",
"# c #593756",
"$ c #6E4A48",
"% c #78514F",
/* pixels */
"oooooooo##oooo##########oooooooo",
"oooooooo##oooo##########oooooooo",
"$$$$$$$$$$$$$$$$$$$$$$$$$$$$oooo",
"$$$$$$$$$$$$$$$$$$$$$$$$$$$$oooo",
"$$$$$$$$$$$$$$$$$$$$$$$$$$$$oooo",
"$$$$$$$$$$$$$$$$$$$$$$$$$$$$oooo",
"%%%%%%%%%%%%%%%%%%%%%%%%%%%%oooo",
"%%%%%%%%%%%%%%%%%%%%%%%%%%%%oooo",
"@@@@@@@@@@@@@@@@@@@@@@@@@@@@..oo",
"@@@@@@@@@@@@@@@@@@@@@@@@@@@@..oo",
"@@@@@@@@@@@@@@@@@@@@@@@@@@@@oooo",
"@@@@@@@@@@@@@@@@@@@@@@@@@@@@oooo",
"OO@@@@@@@@@@@@@@@@@@@@@@@@OO..oo",
"OO@@@@@@@@@@@@@@@@@@@@@@@@OO..oo",
"..............................oo",
"..............................oo",
"OO@@@@@@@@@@@@@@@@@@@@@@@@OO..oo",
"OO@@@@@@@@@@@@@@@@@@@@@@@@OO..oo",
"@@@@@@@@@@@@@@@@@@@@@@@@@@@@  oo",
"@@@@@@@@@@@@@@@@@@@@@@@@@@@@  oo",
"OO@@@@@@@@@@@@@@@@@@@@@@@@OO..oo",
"OO@@@@@@@@@@@@@@@@@@@@@@@@OO..oo",
"....                    ....  oo",
"....                    ....  oo",
"XX++++++++XX  XX++++++++++XX..oo",
"XX++++++++XX  XX++++++++++XX..oo",
"++++++++++++  ++++++++++++++  oo",
"++++++++++++  ++++++++++++++  oo",
"XXXXXXXXXXXX  XXXXXXXXXXXXXX  oo",
"XXXXXXXXXXXX  XXXXXXXXXXXXXX  oo",
"                              oo",
"                              oo"
};
