/* XPM */
static char *walldown1[] = {
/* columns rows colors chars-per-pixel */
"32 32 5 1 ",
"  c #25131A",
". c #3D253B",
"X c #4C2F49",
"o c #6E4A48",
"O c #78514F",
/* pixels */
"                                ",
"                                ",
"XXXXXXXXXXXXXXXXXXXXXXXXXXXXXXXX",
"XXXXXXXXXXXXXXXXXXXXXXXXXXXXXXXX",
"XXXXOOOOOOOOOOOOOOOOOOOOOOOOXXXX",
"XXXXOOOOOOOOOOOOOOOOOOOOOOOOXXXX",
"XXOOOOooooooooooooooooooooooOOXX",
"XXOOOOooooooooooooooooooooooOOXX",
"XXOOooooooooooooooooooooooooooXX",
"XXOOooooooooooooooooooooooooooXX",
"XXooooooooooooooooooooooooooooXX",
"XXooooooooooooooooooooooooooooXX",
"XXOOooooooooooooooooooooooooooXX",
"XXOOooooooooooooooooooooooooooXX",
"XXXXXXXXXXXXXXXXXXXXXXXXXXXXXXXX",
"XXXXXXXXXXXXXXXXXXXXXXXXXXXXXXXX",
"................................",
"................................",
"....                          ..",
"....                          ..",
"..                ..          ..",
"..                ..          ..",
"..                ..            ",
"..                ..            ",
"    ..........  ..  ........  ..",
"    ..........  ..  ........  ..",
"..                              ",
"..                              ",
"                                ",
"                                ",
"                                ",
"                                "
};
